<svg xmlns:xlink="http://www.w3.org/1999/xlink" xmlns="http://www.w3.org/2000/svg" viewBox="0 0 24 24" width="18" height="18" class="d Vb UmNoP"><path d="M12 2L4 5v6.7c0 1.7.4 3.399 1.1 5 .6 1.2 1.5 2.3 2.5 3.1 1.1.9 2.3 1.601 3.6 2l.8.2.799-.2c1.299-.399 2.5-1.1 3.6-2 1-.8 1.9-1.899 2.5-3.1.701-1.6 1.101-3.3 1.101-5V5l-8-3zm5.899 9.7c0 1.399-.301 2.8-.9 4-.5 1-1.199 1.8-2 2.5-.9.7-1.9 1.3-2.999 1.6-1.1-.3-2.1-.899-3-1.6-.8-.7-1.5-1.5-2-2.5-.6-1.2-.9-2.601-.9-4v-1.1L12 8.437l5.899 2.163v1.1zm.1-3.3L12 6.2 6 8.4v-2l6-2.2 5.999 2.2v2z"></path></svg>