<svg xmlns:xlink="http://www.w3.org/1999/xlink" xmlns="http://www.w3.org/2000/svg" viewBox="0 0 24 24" width="18" height="18" class="d Vb UmNoP"><path d="M4.013 12c0-2.1.9-4.2 2.4-5.6l1.6 1.6V3h-5l1.9 1.9c-3.9 3.9-3.9 10.3 0 14.2 1.9 1.801 4.4 2.9 7.1 2.9v-2c-4.4 0-8-3.6-8-8z"></path><path d="M12.514 7h-1c-.3 0-.5.2-.5.5v4.9c0 .1-.1.3-.1.4l-2.2 2.2c-.2.2-.2.5 0 .7l.7.7c.2.199.5.199.7 0l2.8-2.801c.101-.101.101-.199.101-.399V7.5c-.001-.3-.203-.5-.501-.5zM20.014 12H22c0-5.5-4.486-10-9.987-10v2c4.4 0 8.001 3.6 8.001 8zM20.713 14l-4.5 4.7-1.8-2-1.399 1.4 3.199 3.4L22 15.4z"></path></svg>