<svg xmlns:xlink="http://www.w3.org/1999/xlink" xmlns="http://www.w3.org/2000/svg" viewBox="0 0 24 24" width="18" height="18" class="d Vb UmNoP"><path d="M21.811 14.925a5.354 5.354 0 00-4.211-2c-.584 0-1.164.095-1.72.28l-.01-.012a5.466 5.466 0 00-3.87-1.6c-1.4 0-2.8.532-3.87 1.6l-.01.012a5.408 5.408 0 00-1.72-.28 5.353 5.353 0 00-4.21 2l-.19.27v3.83h8.82v-3.812l-.19-.25a5.428 5.428 0 00-.83-.83 3.732 3.732 0 012.2-.712 3.732 3.732 0 012.2.712 5.428 5.428 0 00-.83.83l-.19.251v3.812H22v-3.83l-.189-.271zM9 17.256H3.82v-1.41a3.58 3.58 0 015.18 0v1.41zm11.18 0H15v-1.41a3.58 3.58 0 015.18 0v1.41zM12.021 6.794a.911.911 0 110 1.822.911.911 0 010-1.822zm6.12 1.82a.91.91 0 11-.001 1.821.91.91 0 01.001-1.821zm0-1.82a2.73 2.73 0 100 5.46 2.73 2.73 0 000-5.46zm-6.12-1.82a2.73 2.73 0 100 5.46 2.73 2.73 0 000-5.46zM5.88 8.614a.91.91 0 11-.001 1.821.91.91 0 01.001-1.821zm0-1.82a2.73 2.73 0 100 5.46 2.73 2.73 0 000-5.46z"></path></svg>