<svg xmlns:xlink="http://www.w3.org/1999/xlink" xmlns="http://www.w3.org/2000/svg" viewBox="0 0 24 24" width="18" height="18" class="d Vb UmNoP"><path d="M12.837 10.98c.101-.5.101-1 .101-1.5s0-1-.103-1.5h2.5c.103.5.2 1 .2 1.5s-.102 1-.2 1.5h1.5c.103-.5.202-1 .202-1.5 0-4.1-3.4-7.5-7.5-7.5s-7.5 3.4-7.5 7.5 3.4 7.5 7.5 7.5c.5 0 1-.1 1.5-.2v-4.206c-.4 1.1-.9 2.006-1.5 2.906-.6-.9-1.1-1.9-1.4-3h2.9c0-.8.7-1.5 1.5-1.5h.3zm-3.3-7.399c.6.9 1.1 1.9 1.4 3h-2.8c.3-1.201.8-2.101 1.4-3zm-1.9.299c-.5.8-.8 1.7-1.1 2.6h-2.2c.7-1.2 1.9-2.2 3.3-2.6zm-3.9 7.1c-.1-.5-.2-1-.2-1.5s.1-1 .2-1.5h2.5c0 .5-.1 1-.1 1.5s0 1 .1 1.5h-2.5zm.6 1.5h2.2c.2.9.6 1.8 1 2.7-1.3-.499-2.5-1.4-3.2-2.7zm6.9-1.5h-3.5c0-.5-.1-1-.1-1.5s.1-1 .1-1.5h3.5c.1.5.1 1 .1 1.5s-.1 1-.1 1.5zm3.5-4.5h-2.2c-.2-.9-.6-1.8-1-2.7 1.3.5 2.5 1.5 3.2 2.7zm6.8 13.1h-1.7c-.1 0-.2 0-.3.102-.6.398-3.2 2.299-3.2 2.299-.2.1-.6 0-.6-.2v-1.7c0-.3-.2-.5-.5-.5h-2.8c-.3 0-.5-.199-.5-.5v-6.5c0-.3.2-.5.5-.5h9c.3 0 .5.2.5.5v6.5c.1.199-.1.499-.4.499z"></path></svg>